<svg xmlns="http://www.w3.org/2000/svg" viewBox="0 0 1400 950">
  <defs>
    <style>
      @import url('https://fonts.googleapis.com/css2?family=JetBrains+Mono:wght@400;500;600;700&amp;display=swap');
      text { font-family: 'JetBrains Mono', 'Noto Sans SC', 'PingFang SC', sans-serif; }
    </style>
    <pattern id="grid" width="40" height="40" patternUnits="userSpaceOnUse">
      <path d="M 40 0 L 0 0 0 40" fill="none" stroke="#1e293b" stroke-width="0.5"/>
    </pattern>
    <marker id="arrow" markerWidth="10" markerHeight="7" refX="9" refY="3.5" orient="auto">
      <polygon points="0 0, 10 3.5, 0 7" fill="#64748b"/>
    </marker>
    <marker id="arrow-cyan" markerWidth="10" markerHeight="7" refX="9" refY="3.5" orient="auto">
      <polygon points="0 0, 10 3.5, 0 7" fill="#22d3ee"/>
    </marker>
    <marker id="arrow-green" markerWidth="10" markerHeight="7" refX="9" refY="3.5" orient="auto">
      <polygon points="0 0, 10 3.5, 0 7" fill="#34d399"/>
    </marker>
    <marker id="arrow-violet" markerWidth="10" markerHeight="7" refX="9" refY="3.5" orient="auto">
      <polygon points="0 0, 10 3.5, 0 7" fill="#a78bfa"/>
    </marker>
    <marker id="arrow-amber" markerWidth="10" markerHeight="7" refX="9" refY="3.5" orient="auto">
      <polygon points="0 0, 10 3.5, 0 7" fill="#fbbf24"/>
    </marker>
  </defs>

  <!-- Background -->
  <rect width="1400" height="950" fill="#0f172a"/>
  <rect width="1400" height="950" fill="url(#grid)"/>

  <!-- Title -->
  <text x="700" y="35" fill="white" font-size="16" font-weight="700" text-anchor="middle">0 层数据流图 - 南信猫友记</text>

  <!-- ========== External Entities ========== -->
  <!-- 普通用户 -->
  <rect x="35" y="80" width="170" height="95" rx="4" fill="#0f172a"/>
  <rect x="35" y="80" width="170" height="95" rx="4" fill="rgba(8,51,68,0.6)" stroke="#22d3ee" stroke-width="2"/>
  <text x="120" y="115" fill="white" font-size="12" font-weight="700" text-anchor="middle">普通用户</text>
  <text x="120" y="133" fill="#94a3b8" font-size="9" text-anchor="middle">Regular User</text>
  <text x="120" y="157" fill="#64748b" font-size="7" text-anchor="middle">浏览器</text>

  <!-- 管理员 -->
  <rect x="1155" y="80" width="170" height="95" rx="4" fill="#0f172a"/>
  <rect x="1155" y="80" width="170" height="95" rx="4" fill="rgba(76,29,149,0.4)" stroke="#a78bfa" stroke-width="2"/>
  <text x="1240" y="115" fill="white" font-size="12" font-weight="700" text-anchor="middle">管理员</text>
  <text x="1240" y="133" fill="#94a3b8" font-size="9" text-anchor="middle">Admin</text>
  <text x="1240" y="157" fill="#64748b" font-size="7" text-anchor="middle">浏览器</text>

  <!-- ========== PROCESSES (8 processes arranged in 2 rows x 4 cols) ========== -->

  <!-- Row 1: y=80 -->
  <!-- P1 用户管理 -->
  <rect x="280" y="80" width="155" height="75" rx="6" fill="#0f172a"/>
  <rect x="280" y="80" width="155" height="75" rx="6" fill="rgba(6,78,59,0.4)" stroke="#34d399" stroke-width="2"/>
  <text x="357" y="110" fill="white" font-size="12" font-weight="700" text-anchor="middle">P1 用户管理</text>
  <text x="357" y="130" fill="#94a3b8" font-size="9" text-anchor="middle">注册 / 登录 / JWT</text>

  <!-- P2 猫咪管理 -->
  <rect x="490" y="80" width="155" height="75" rx="6" fill="#0f172a"/>
  <rect x="490" y="80" width="155" height="75" rx="6" fill="rgba(6,78,59,0.4)" stroke="#34d399" stroke-width="2"/>
  <text x="567" y="110" fill="white" font-size="12" font-weight="700" text-anchor="middle">P2 猫咪管理</text>
  <text x="567" y="130" fill="#94a3b8" font-size="9" text-anchor="middle">添加 / 编辑 / 删除</text>

  <!-- P3 浏览搜索 -->
  <rect x="700" y="80" width="155" height="75" rx="6" fill="#0f172a"/>
  <rect x="700" y="80" width="155" height="75" rx="6" fill="rgba(6,78,59,0.4)" stroke="#34d399" stroke-width="2"/>
  <text x="777" y="110" fill="white" font-size="12" font-weight="700" text-anchor="middle">P3 浏览搜索</text>
  <text x="777" y="130" fill="#94a3b8" font-size="9" text-anchor="middle">关键词搜索 / 筛选</text>

  <!-- P4 照片管理 -->
  <rect x="910" y="80" width="155" height="75" rx="6" fill="#0f172a"/>
  <rect x="910" y="80" width="155" height="75" rx="6" fill="rgba(6,78,59,0.4)" stroke="#34d399" stroke-width="2"/>
  <text x="987" y="110" fill="white" font-size="12" font-weight="700" text-anchor="middle">P4 照片管理</text>
  <text x="987" y="130" fill="#94a3b8" font-size="9" text-anchor="middle">上传 / 审核 / 点赞</text>

  <!-- Row 2: y=240 -->
  <!-- P5 评论管理 -->
  <rect x="280" y="240" width="155" height="75" rx="6" fill="#0f172a"/>
  <rect x="280" y="240" width="155" height="75" rx="6" fill="rgba(6,78,59,0.4)" stroke="#34d399" stroke-width="2"/>
  <text x="357" y="270" fill="white" font-size="12" font-weight="700" text-anchor="middle">P5 评论管理</text>
  <text x="357" y="290" fill="#94a3b8" font-size="9" text-anchor="middle">发表 / 查看 / 删除</text>

  <!-- P6 推荐计算 -->
  <rect x="490" y="240" width="155" height="75" rx="6" fill="#0f172a"/>
  <rect x="490" y="240" width="155" height="75" rx="6" fill="rgba(120,53,15,0.3)" stroke="#fbbf24" stroke-width="2"/>
  <text x="567" y="270" fill="white" font-size="12" font-weight="700" text-anchor="middle">P6 推荐计算</text>
  <text x="567" y="290" fill="#94a3b8" font-size="9" text-anchor="middle">★ 余弦相似度+热度因子</text>

  <!-- P7 关注管理 -->
  <rect x="700" y="240" width="155" height="75" rx="6" fill="#0f172a"/>
  <rect x="700" y="240" width="155" height="75" rx="6" fill="rgba(6,78,59,0.4)" stroke="#34d399" stroke-width="2"/>
  <text x="777" y="270" fill="white" font-size="12" font-weight="700" text-anchor="middle">P7 关注管理</text>
  <text x="777" y="290" fill="#94a3b8" font-size="9" text-anchor="middle">关注 / 取消关注</text>

  <!-- P8 评分管理 -->
  <rect x="910" y="240" width="155" height="75" rx="6" fill="#0f172a"/>
  <rect x="910" y="240" width="155" height="75" rx="6" fill="rgba(6,78,59,0.4)" stroke="#34d399" stroke-width="2"/>
  <text x="987" y="270" fill="white" font-size="12" font-weight="700" text-anchor="middle">P8 评分管理</text>
  <text x="987" y="290" fill="#94a3b8" font-size="9" text-anchor="middle">1-5 星评分</text>

  <!-- ========== DATA STORES (8 cylinders, bottom area) ========== -->
  <!-- D1 用户表 -->
  <g transform="translate(40, 480)">
    <rect x="0" y="12" width="120" height="50" rx="2" fill="#0f172a"/>
    <ellipse cx="60" cy="12" rx="60" ry="12" fill="#0f172a"/>
    <ellipse cx="60" cy="62" rx="60" ry="12" fill="#0f172a"/>
    <rect x="0" y="12" width="120" height="50" fill="rgba(76,29,149,0.4)"/>
    <ellipse cx="60" cy="12" rx="60" ry="12" fill="rgba(76,29,149,0.4)" stroke="#a78bfa" stroke-width="1.5"/>
    <ellipse cx="60" cy="62" rx="60" ry="12" fill="rgba(76,29,149,0.4)" stroke="#a78bfa" stroke-width="1.5"/>
    <line x1="0" y1="12" x2="0" y2="62" stroke="#a78bfa" stroke-width="1.5"/>
    <line x1="120" y1="12" x2="120" y2="62" stroke="#a78bfa" stroke-width="1.5"/>
    <text x="60" y="38" fill="white" font-size="10" font-weight="600" text-anchor="middle">D1 用户表</text>
  </g>

  <!-- D2 猫咪表 -->
  <g transform="translate(210, 480)">
    <rect x="0" y="12" width="120" height="50" rx="2" fill="#0f172a"/>
    <ellipse cx="60" cy="12" rx="60" ry="12" fill="#0f172a"/>
    <ellipse cx="60" cy="62" rx="60" ry="12" fill="#0f172a"/>
    <rect x="0" y="12" width="120" height="50" fill="rgba(76,29,149,0.4)"/>
    <ellipse cx="60" cy="12" rx="60" ry="12" fill="rgba(76,29,149,0.4)" stroke="#a78bfa" stroke-width="1.5"/>
    <ellipse cx="60" cy="62" rx="60" ry="12" fill="rgba(76,29,149,0.4)" stroke="#a78bfa" stroke-width="1.5"/>
    <line x1="0" y1="12" x2="0" y2="62" stroke="#a78bfa" stroke-width="1.5"/>
    <line x1="120" y1="12" x2="120" y2="62" stroke="#a78bfa" stroke-width="1.5"/>
    <text x="60" y="38" fill="white" font-size="10" font-weight="600" text-anchor="middle">D2 猫咪表</text>
  </g>

  <!-- D3 照片表 -->
  <g transform="translate(380, 480)">
    <rect x="0" y="12" width="120" height="50" rx="2" fill="#0f172a"/>
    <ellipse cx="60" cy="12" rx="60" ry="12" fill="#0f172a"/>
    <ellipse cx="60" cy="62" rx="60" ry="12" fill="#0f172a"/>
    <rect x="0" y="12" width="120" height="50" fill="rgba(76,29,149,0.4)"/>
    <ellipse cx="60" cy="12" rx="60" ry="12" fill="rgba(76,29,149,0.4)" stroke="#a78bfa" stroke-width="1.5"/>
    <ellipse cx="60" cy="62" rx="60" ry="12" fill="rgba(76,29,149,0.4)" stroke="#a78bfa" stroke-width="1.5"/>
    <line x1="0" y1="12" x2="0" y2="62" stroke="#a78bfa" stroke-width="1.5"/>
    <line x1="120" y1="12" x2="120" y2="62" stroke="#a78bfa" stroke-width="1.5"/>
    <text x="60" y="38" fill="white" font-size="10" font-weight="600" text-anchor="middle">D3 照片表</text>
  </g>

  <!-- D4 评论表 -->
  <g transform="translate(550, 480)">
    <rect x="0" y="12" width="120" height="50" rx="2" fill="#0f172a"/>
    <ellipse cx="60" cy="12" rx="60" ry="12" fill="#0f172a"/>
    <ellipse cx="60" cy="62" rx="60" ry="12" fill="#0f172a"/>
    <rect x="0" y="12" width="120" height="50" fill="rgba(76,29,149,0.4)"/>
    <ellipse cx="60" cy="12" rx="60" ry="12" fill="rgba(76,29,149,0.4)" stroke="#a78bfa" stroke-width="1.5"/>
    <ellipse cx="60" cy="62" rx="60" ry="12" fill="rgba(76,29,149,0.4)" stroke="#a78bfa" stroke-width="1.5"/>
    <line x1="0" y1="12" x2="0" y2="62" stroke="#a78bfa" stroke-width="1.5"/>
    <line x1="120" y1="12" x2="120" y2="62" stroke="#a78bfa" stroke-width="1.5"/>
    <text x="60" y="38" fill="white" font-size="10" font-weight="600" text-anchor="middle">D4 评论表</text>
  </g>

  <!-- D5 日志表 -->
  <g transform="translate(720, 480)">
    <rect x="0" y="12" width="120" height="50" rx="2" fill="#0f172a"/>
    <ellipse cx="60" cy="12" rx="60" ry="12" fill="#0f172a"/>
    <ellipse cx="60" cy="62" rx="60" ry="12" fill="#0f172a"/>
    <rect x="0" y="12" width="120" height="50" fill="rgba(255,107,107,0.25)"/>
    <ellipse cx="60" cy="12" rx="60" ry="12" fill="rgba(255,107,107,0.25)" stroke="#ff6b6b" stroke-width="1.5"/>
    <ellipse cx="60" cy="62" rx="60" ry="12" fill="rgba(255,107,107,0.25)" stroke="#ff6b6b" stroke-width="1.5"/>
    <line x1="0" y1="12" x2="0" y2="62" stroke="#ff6b6b" stroke-width="1.5"/>
    <line x1="120" y1="12" x2="120" y2="62" stroke="#ff6b6b" stroke-width="1.5"/>
    <text x="60" y="38" fill="white" font-size="10" font-weight="600" text-anchor="middle">D5 日志表</text>
  </g>

  <!-- D6 点赞表 -->
  <g transform="translate(890, 480)">
    <rect x="0" y="12" width="120" height="50" rx="2" fill="#0f172a"/>
    <ellipse cx="60" cy="12" rx="60" ry="12" fill="#0f172a"/>
    <ellipse cx="60" cy="62" rx="60" ry="12" fill="#0f172a"/>
    <rect x="0" y="12" width="120" height="50" fill="rgba(251,146,60,0.3)"/>
    <ellipse cx="60" cy="12" rx="60" ry="12" fill="rgba(251,146,60,0.3)" stroke="#fb923c" stroke-width="1.5"/>
    <ellipse cx="60" cy="62" rx="60" ry="12" fill="rgba(251,146,60,0.3)" stroke="#fb923c" stroke-width="1.5"/>
    <line x1="0" y1="12" x2="0" y2="62" stroke="#fb923c" stroke-width="1.5"/>
    <line x1="120" y1="12" x2="120" y2="62" stroke="#fb923c" stroke-width="1.5"/>
    <text x="60" y="38" fill="white" font-size="10" font-weight="600" text-anchor="middle">D6 点赞表</text>
  </g>

  <!-- D7 关注表 -->
  <g transform="translate(1060, 480)">
    <rect x="0" y="12" width="120" height="50" rx="2" fill="#0f172a"/>
    <ellipse cx="60" cy="12" rx="60" ry="12" fill="#0f172a"/>
    <ellipse cx="60" cy="62" rx="60" ry="12" fill="#0f172a"/>
    <rect x="0" y="12" width="120" height="50" fill="rgba(251,146,60,0.3)"/>
    <ellipse cx="60" cy="12" rx="60" ry="12" fill="rgba(251,146,60,0.3)" stroke="#fb923c" stroke-width="1.5"/>
    <ellipse cx="60" cy="62" rx="60" ry="12" fill="rgba(251,146,60,0.3)" stroke="#fb923c" stroke-width="1.5"/>
    <line x1="0" y1="12" x2="0" y2="62" stroke="#fb923c" stroke-width="1.5"/>
    <line x1="120" y1="12" x2="120" y2="62" stroke="#fb923c" stroke-width="1.5"/>
    <text x="60" y="38" fill="white" font-size="10" font-weight="600" text-anchor="middle">D7 关注表</text>
  </g>

  <!-- D8 评分表 -->
  <g transform="translate(1230, 480)">
    <rect x="0" y="12" width="120" height="50" rx="2" fill="#0f172a"/>
    <ellipse cx="60" cy="12" rx="60" ry="12" fill="#0f172a"/>
    <ellipse cx="60" cy="62" rx="60" ry="12" fill="#0f172a"/>
    <rect x="0" y="12" width="120" height="50" fill="rgba(251,146,60,0.3)"/>
    <ellipse cx="60" cy="12" rx="60" ry="12" fill="rgba(251,146,60,0.3)" stroke="#fb923c" stroke-width="1.5"/>
    <ellipse cx="60" cy="62" rx="60" ry="12" fill="rgba(251,146,60,0.3)" stroke="#fb923c" stroke-width="1.5"/>
    <line x1="0" y1="12" x2="0" y2="62" stroke="#fb923c" stroke-width="1.5"/>
    <line x1="120" y1="12" x2="120" y2="62" stroke="#fb923c" stroke-width="1.5"/>
    <text x="60" y="38" fill="white" font-size="10" font-weight="600" text-anchor="middle">D8 评分表</text>
  </g>

  <!-- ========== DATA FLOWS: External Entities ↔ Processes ========== -->

  <!-- 用户 → P1: 注册/登录 -->
  <path d="M 205,105 L 280,105" fill="none" stroke="#22d3ee" stroke-width="1.5" marker-end="url(#arrow)"/>
  <text x="243" y="98" fill="#22d3ee" font-size="8" text-anchor="middle">注册/登录</text>

  <!-- P1 → 用户: Token -->
  <path d="M 280,130 L 205,130" fill="none" stroke="#34d399" stroke-width="1.5" marker-end="url(#arrow-green)"/>
  <text x="243" y="143" fill="#34d399" font-size="8" text-anchor="middle">Token</text>

  <!-- 用户 → P3: 搜索请求 -->
  <path d="M 205,155 L 205,380 L 700,380 L 700,365" fill="none" stroke="#22d3ee" stroke-width="1.5" marker-end="url(#arrow)"/>
  <text x="490" y="393" fill="#22d3ee" font-size="8" text-anchor="middle">搜索请求</text>

  <!-- 用户 → P4: 照片/点赞 -->
  <path d="M 205,170 L 205,420 L 910,420 L 910,365" fill="none" stroke="#22d3ee" stroke-width="1.5" marker-end="url(#arrow)"/>
  <text x="780" y="415" fill="#22d3ee" font-size="8" text-anchor="middle">照片 / 点赞请求</text>

  <!-- 用户 → P5: 留言 -->
  <path d="M 205,165 L 205,440 L 280,440 L 280,315" fill="none" stroke="#22d3ee" stroke-width="1.5" marker-end="url(#arrow)"/>
  <text x="243" y="445" fill="#22d3ee" font-size="8" text-anchor="middle">留言内容</text>

  <!-- 用户 → P7: 关注请求 -->
  <path d="M 205,160 L 205,450 L 700,450 L 700,315" fill="none" stroke="#22d3ee" stroke-width="1.5" marker-end="url(#arrow)"/>
  <text x="460" y="455" fill="#22d3ee" font-size="8" text-anchor="middle">关注/取消请求</text>

  <!-- 用户 → P8: 评分请求 -->
  <path d="M 205,175 L 205,460 L 910,460 L 910,315" fill="none" stroke="#22d3ee" stroke-width="1.5" marker-end="url(#arrow)"/>
  <text x="700" y="455" fill="#22d3ee" font-size="8" text-anchor="middle">评分请求</text>

  <!-- 管理员 → P2 -->
  <path d="M 1155,105 L 645,105" fill="none" stroke="#a78bfa" stroke-width="1.5" marker-end="url(#arrow-violet)"/>
  <text x="900" y="98" fill="#a78bfa" font-size="8" text-anchor="middle">管理操作</text>

  <!-- 管理员 → P4: 审核 -->
  <path d="M 1155,130 L 1065,130" fill="none" stroke="#a78bfa" stroke-width="1.5" marker-end="url(#arrow-violet)"/>
  <text x="1110" y="123" fill="#a78bfa" font-size="8" text-anchor="middle">审核照片</text>

  <!-- ========== DATA FLOWS: Processes ↔ Data Stores ========== -->

  <!-- P1 ⟷ D1 -->
  <path d="M 357,155 L 357,190 L 100,190 L 100,480" fill="none" stroke="#64748b" stroke-width="1.5"/>
  <text x="220" y="185" fill="#64748b" font-size="8" text-anchor="middle">D1 用户表</text>

  <!-- P2 ⟷ D2 -->
  <path d="M 567,155 L 567,190 L 270,190 L 270,480" fill="none" stroke="#64748b" stroke-width="1.5"/>
  <text x="410" y="185" fill="#64748b" font-size="8" text-anchor="middle">D2 猫咪表</text>

  <!-- P3 ⟷ D2 -->
  <path d="M 777,155 L 777,190 L 270,190" fill="none" stroke="#64748b" stroke-width="1.5"/>
  <text x="520" y="185" fill="#64748b" font-size="8" text-anchor="middle">D2 猫咪表</text>

  <!-- P4 ⟷ D3 -->
  <path d="M 987,155 L 987,190 L 440,190 L 440,480" fill="none" stroke="#64748b" stroke-width="1.5"/>
  <text x="700" y="185" fill="#64748b" font-size="8" text-anchor="middle">D3 照片表</text>

  <!-- P4 → D6 (点赞表) -->
  <path d="M 910,200 L 910,220 L 950,220 L 950,480" fill="none" stroke="#fb923c" stroke-width="1.5" marker-end="url(#arrow)"/>
  <text x="960" y="220" fill="#fb923c" font-size="8" text-anchor="middle">点赞数据</text>

  <!-- P5 ⟷ D4 -->
  <path d="M 357,315 L 357,350 L 610,350 L 610,480" fill="none" stroke="#64748b" stroke-width="1.5"/>
  <text x="490" y="355" fill="#64748b" font-size="8" text-anchor="middle">D4 评论表</text>

  <!-- P6 ↔ D2 (猫咪特征) -->
  <path d="M 567,315 L 567,350 L 270,350 L 270,480" fill="none" stroke="#fbbf24" stroke-width="1.5"/>
  <text x="410" y="355" fill="#fbbf24" font-size="8" text-anchor="middle">D2 猫咪特征</text>

  <!-- P7 ⟷ D7 -->
  <path d="M 777,315 L 777,350 L 1120,350 L 1120,480" fill="none" stroke="#64748b" stroke-width="1.5"/>
  <text x="950" y="355" fill="#64748b" font-size="8" text-anchor="middle">D7 关注表</text>

  <!-- P8 ⟷ D8 -->
  <path d="M 987,315 L 987,350 L 1290,350 L 1290,480" fill="none" stroke="#64748b" stroke-width="1.5"/>
  <text x="1130" y="355" fill="#64748b" font-size="8" text-anchor="middle">D8 评分表</text>

  <!-- P6 → P3: 推荐结果 -->
  <path d="M 645,240 L 645,190 L 777,190 L 777,155" fill="none" stroke="#fbbf24" stroke-width="1.5" marker-end="url(#arrow-amber)"/>
  <text x="680" y="210" fill="#fbbf24" font-size="8" text-anchor="middle">推荐结果</text>

  <!-- P3 → D5: 浏览/搜索日志 -->
  <path d="M 700,120 L 780,120 L 780,480" fill="none" stroke="#ff6b6b" stroke-width="1.5"/>
  <text x="795" y="120" fill="#ff6b6b" font-size="8" text-anchor="middle">P3→D5 浏览/搜索日志</text>

  <!-- P5 → D5: 评论日志 -->
  <path d="M 435,240 L 435,220 L 780,220 L 780,480" fill="none" stroke="#ff6b6b" stroke-width="1.5"/>
  <text x="610" y="215" fill="#ff6b6b" font-size="8" text-anchor="middle">P5→D5 评论日志</text>

  <!-- D5 → P6: 热度数据 -->
  <path d="M 780,480 L 780,380 L 567,380 L 567,315" fill="none" stroke="#ff6b6b" stroke-width="1.5" marker-end="url(#arrow)"/>
  <text x="680" y="395" fill="#ff6b6b" font-size="8" text-anchor="middle">热度数据→P6</text>

  <!-- D6 → P6: 点赞热度 -->
  <path d="M 950,480 L 950,410 L 645,410 L 645,315" fill="none" stroke="#fb923c" stroke-width="1.5" marker-end="url(#arrow)"/>
  <text x="800" y="415" fill="#fb923c" font-size="8" text-anchor="middle">点赞热度→P6</text>

  <!-- D7 → P6: 关注热度 -->
  <path d="M 1120,480 L 1120,420 L 645,420 L 645,315" fill="none" stroke="#fb923c" stroke-width="1.5" marker-end="url(#arrow)"/>
  <text x="880" y="425" fill="#fb923c" font-size="8" text-anchor="middle">关注热度→P6</text>

  <!-- D8 → P6: 评分热度 -->
  <path d="M 1290,480 L 1290,430 L 645,430 L 645,315" fill="none" stroke="#fb923c" stroke-width="1.5" marker-end="url(#arrow)"/>
  <text x="960" y="435" fill="#fb923c" font-size="8" text-anchor="middle">评分热度→P6</text>

  <!-- ========== Legend ========== -->
  <rect x="60" y="600" width="1240" height="150" rx="8" fill="#0f172a"/>
  <rect x="60" y="600" width="1240" height="150" rx="8" fill="rgba(30,41,59,0.5)" stroke="#94a3b8" stroke-width="1"/>
  <text x="680" y="618" fill="#94a3b8" font-size="10" font-weight="600" text-anchor="middle">处理编号说明</text>

  <rect x="100" y="630" width="30" height="14" rx="6" fill="rgba(6,78,59,0.4)" stroke="#34d399" stroke-width="1"/>
  <text x="145" y="641" fill="#94a3b8" font-size="8">P1-P5, P7-P8：常规处理（用户/猫咪/搜索/照片/评论/关注/评分）</text>

  <rect x="100" y="652" width="30" height="14" rx="6" fill="rgba(120,53,15,0.3)" stroke="#fbbf24" stroke-width="1"/>
  <text x="145" y="663" fill="#94a3b8" font-size="8">P6：核心算法处理（余弦相似度计算 + 热度因子融合）</text>

  <text x="100" y="685" fill="#94a3b8" font-size="8">D1-D5：基础数据存储  |  D5（粉色）：行为日志存储  |  D6-D8（橙色）：互动数据存储（新增）</text>
  <text x="100" y="705" fill="#64748b" font-size="7">本系统整体为事务型结构，P6 推荐计算为加工型子模块</text>
  <text x="100" y="725" fill="#64748b" font-size="7">新增功能来源：中大猫谱（sysucats/zhongdamaopu）竞品分析 —— 照片审核、点赞、关注、评分</text>

  <!-- Footer -->
  <text x="700" y="890" fill="#475569" font-size="8" text-anchor="middle">南信猫友记 · 软件工程课程项目 · 0 层数据流图（含 8 个处理）</text>
</svg>